<svg xmlns="http://www.w3.org/2000/svg" width="760" height="560" font-family="sans-serif" font-size="13">
<rect width="100%" height="100%" fill="#f4f1ea"/>
<g transform="translate(0,20)">
 <rect width="360" height="520" rx="18" fill="#fbfaf6" stroke="#bdb6a8"/>
 <text x="20" y="34" fill="#6b655b">Checklist · ⋮ menu (Split up tab gone)</text>
 <text x="20" y="66" font-weight="bold" fill="#1d1b17">Items</text><text x="80" y="66" fill="#6b655b">Recordings 2</text>
 <rect x="20" y="72" width="40" height="2" fill="#1d1b17"/>
 <text x="330" y="40" font-size="20" fill="#1d1b17">⋮</text>
 <rect x="150" y="50" width="196" height="268" rx="10" fill="#ffffff" stroke="#bdb6a8" filter="drop-shadow(0 6px 10px rgba(0,0,0,.18))"/>
 <g fill="#1d1b17"><text x="166" y="80">Details</text><text x="166" y="124">Share</text><text x="166" y="168">Pin</text>
 <text x="166" y="212" font-weight="bold">Tidy up list</text><text x="166" y="228" font-size="11" fill="#6b655b">Split sentences, group items</text>
 <text x="166" y="256">Regenerate from recordings…</text><text x="166" y="300" fill="#a3322a">Delete</text></g>
 <g stroke="#eee8dc"><line x1="150" y1="94" x2="346" y2="94"/><line x1="150" y1="138" x2="346" y2="138"/><line x1="150" y1="182" x2="346" y2="182"/><line x1="150" y1="238" x2="346" y2="238"/><line x1="150" y1="274" x2="346" y2="274"/></g>
 <rect x="20" y="340" width="320" height="100" rx="12" fill="#f0ece3" stroke="#d6cfc1"/>
 <text x="36" y="372" font-family="Georgia, serif" font-size="15" fill="#1d1b17">Add milk, eggs and protein powder</text>
 <text x="36" y="392" font-family="Georgia, serif" font-size="15" fill="#1d1b17">to the shopping list</text>
</g>
<g transform="translate(400,20)">
 <rect width="360" height="520" rx="18" fill="#fbfaf6" stroke="#bdb6a8"/>
 <text x="20" y="34" fill="#6b655b">After Tidy: body replaced, Undo 6 s</text>
 <text x="20" y="66" font-weight="bold" fill="#1d1b17">Items</text><text x="80" y="66" fill="#6b655b">Recordings 2</text>
 <rect x="20" y="72" width="40" height="2" fill="#1d1b17"/>
 <text x="20" y="104" fill="#6b655b" font-size="12">Status line while pending: “Tidying the list…”</text>
 <rect x="20" y="116" width="320" height="150" rx="12" fill="#f0ece3" stroke="#d6cfc1"/>
 <g font-family="Georgia, serif" font-size="15" fill="#1d1b17">
 <text x="128" y="146">Milk</text><text x="128" y="190">Eggs</text><text x="128" y="234">Protein powder</text></g>
 <g fill="none" stroke="#6b655b" stroke-width="1.6"><rect x="87" y="129" width="22" height="22" rx="5"/><rect x="87" y="173" width="22" height="22" rx="5"/><rect x="87" y="217" width="22" height="22" rx="5"/></g>
 <rect x="20" y="440" width="320" height="52" rx="12" fill="#1d1b17"/>
 <text x="36" y="471" fill="#fbfaf6">List tidied: 1 line → 3 items.</text>
 <text x="290" y="471" fill="#f0b48f" font-weight="bold">Undo</text>
</g>
</svg>
